<?xml version="1.0" ?><svg viewBox="0 0 64 64" xmlns="http://www.w3.org/2000/svg"><g data-name="28-Clown" id="_28-Clown"><path d="M24,17h5a2.938,2.938,0,0,1-3,3H24Z" style="fill:#ffa426"/><path d="M40,17v3H38a2.938,2.938,0,0,1-3-3Z" style="fill:#ffa426"/><path d="M26,19H24v1h2a2.938,2.938,0,0,0,3-3h-.176A2.718,2.718,0,0,1,26,19Z" style="fill:#ff7045"/><path d="M35.176,17H35a2.938,2.938,0,0,0,3,3h2V19H38A2.718,2.718,0,0,1,35.176,17Z" style="fill:#ff7045"/><rect height="7" style="fill:#64e1dc" width="6" x="13" y="56"/><rect height="7" style="fill:#64e1dc" width="6" x="45" y="56"/><rect height="7" style="fill:#00c8c8" width="3" x="45" y="56"/><rect height="7" style="fill:#00c8c8" width="3" x="16" y="56"/><path d="M19,56H13V47a8,8,0,0,1,8-8h2a9,9,0,0,0,9,9v5a2,2,0,0,0,0,4v6H19Z" style="fill:#ff7045"/><path d="M45,56v7H32V57a2,2,0,0,0,0-4V48a9,9,0,0,0,9-9h2a8,8,0,0,1,8,8v9Z" style="fill:#ffa426"/><circle cx="32" cy="25" r="4" style="fill:#ffa426"/><path d="M32,23a3.989,3.989,0,0,1,3.859,3,4,4,0,1,0-7.718,0A3.989,3.989,0,0,1,32,23Z" style="fill:#ffda45"/><path d="M32,27a3.989,3.989,0,0,1-3.859-3,4,4,0,1,0,7.718,0A3.989,3.989,0,0,1,32,27Z" style="fill:#ff7045"/><path d="M21,18v7c0,.34.02.67.05,1H21a4,4,0,0,1,0-8Z" style="fill:#00a0aa"/><path d="M47,22a4,4,0,0,1-4,4h-.05c.03-.33.05-.66.05-1V18A4,4,0,0,1,47,22Z" style="fill:#00a0aa"/><path d="M35,35.58V39a3,3,0,0,1-6,0V35.58L32,36A10.609,10.609,0,0,0,35,35.58Z" style="fill:#00a0aa"/><path d="M43,27c3,0,4,2.69,4,6a6,6,0,0,1-6,6,9,9,0,0,1-18,0,6,6,0,0,1-6-6c0-3.31,1-6,4-6l.18-.03A10.969,10.969,0,0,0,29,35.58V39a3,3,0,0,0,6,0V35.58a10.966,10.966,0,0,0,7.82-8.61Z" style="fill:#b674f2"/><path d="M42.82,29.97,43,30c2.425,0,3.543,1.759,3.882,4.181A5.973,5.973,0,0,0,47,33c0-3.31-1-6-4-6l-.18-.03A10.966,10.966,0,0,1,35,35.58v3A10.966,10.966,0,0,0,42.82,29.97Z" style="fill:#a260e5"/><path d="M29,42a3,3,0,0,0,6,0V39a3,3,0,0,1-6,0Z" style="fill:#a260e5"/><path d="M21,30l.18-.03A10.969,10.969,0,0,0,29,38.58v-3a10.969,10.969,0,0,1-7.82-8.61L21,27c-3,0-4,2.69-4,6a5.973,5.973,0,0,0,.118,1.181C17.457,31.759,18.575,30,21,30Z" style="fill:#a260e5"/><path d="M24,1c2.54,0,4.64,2.74,4.95,5.33C21,8.14,21,17,21,17v1a4,4,0,0,0-4,4c-6,0-6-5.47-6-8a8,8,0,0,1,8-8A5,5,0,0,1,24,1Z" style="fill:#b674f2"/><path d="M53,14c0,2.53,0,8-6,8a4,4,0,0,0-4-4V17s0-8.86-7.95-10.67C35.36,3.74,37.46,1,40,1a5,5,0,0,1,5,5A8,8,0,0,1,53,14Z" style="fill:#b674f2"/><path d="M19,11a5,5,0,0,1,5-5,4.182,4.182,0,0,1,2.733,1.122A10.175,10.175,0,0,1,28.95,6.33C28.64,3.74,26.54,1,24,1a5,5,0,0,0-5,5,8,8,0,0,0-8,8,17.44,17.44,0,0,0,.22,3.162A8,8,0,0,1,19,11Z" style="fill:#c78ff5"/><path d="M40,6a5,5,0,0,1,5,5,8,8,0,0,1,7.78,6.162A17.44,17.44,0,0,0,53,14a8,8,0,0,0-8-8,5,5,0,0,0-5-5c-2.54,0-4.64,2.74-4.95,5.33a10.175,10.175,0,0,1,2.217.792A4.182,4.182,0,0,1,40,6Z" style="fill:#c78ff5"/><path d="M40,20V17H35a2.938,2.938,0,0,0,3,3ZM29,17H24v3h2A2.938,2.938,0,0,0,29,17Zm6,18.58A10.609,10.609,0,0,1,32,36l-3-.42a10.969,10.969,0,0,1-7.82-8.61,8.06,8.06,0,0,1-.13-.97c-.03-.33-.05-.66-.05-1V17s0-8.86,7.95-10.67a14.26,14.26,0,0,1,6.1,0C43,8.14,43,17,43,17v8c0,.34-.02.67-.05,1a8.06,8.06,0,0,1-.13.97A10.966,10.966,0,0,1,35,35.58ZM36,25a4,4,0,1,0-4,4A4,4,0,0,0,36,25Z" style="fill:#64e1dc"/><path d="M35.05,6.33a14.26,14.26,0,0,0-6.1,0C21,8.14,21,17,21,17v2s0-8.86,7.95-10.67a14.26,14.26,0,0,1,6.1,0C43,10.14,43,19,43,19V17S43,8.14,35.05,6.33Z" style="fill:#00c8c8"/><path d="M32,34a9.01,9.01,0,0,1-9-9h2a7,7,0,0,0,14,0h2A9.01,9.01,0,0,1,32,34Z" style="fill:#00a0aa"/><path d="M30,17a.991.991,0,0,1-.371-.071l-5-2,.742-1.858L29,14.523V13h2v3a1,1,0,0,1-1,1Z" style="fill:#00a0aa"/><path d="M34,17a1,1,0,0,1-1-1V13h2v1.523l3.629-1.452.742,1.858-5,2A.991.991,0,0,1,34,17Z" style="fill:#00a0aa"/><circle cx="32" cy="55" r="2" style="fill:#b674f2"/><path d="M35.05,6.33C43,8.14,43,17,43,17v8c0,.34-.02.67-.05,1a8.06,8.06,0,0,1-.13.97A10.966,10.966,0,0,1,35,35.58,10.609,10.609,0,0,1,32,36l-3-.42a10.969,10.969,0,0,1-7.82-8.61,8.06,8.06,0,0,1-.13-.97c-.03-.33-.05-.66-.05-1V17s0-8.86,7.95-10.67a14.26,14.26,0,0,1,6.1,0Z" style="fill:none;stroke:#000;stroke-linejoin:round;stroke-width:2px"/><path d="M29,35v4a3,3,0,0,0,6,0V35" style="fill:none;stroke:#000;stroke-linejoin:round;stroke-width:2px"/><path d="M41,39h2a8,8,0,0,1,8,8V63H13V47a8,8,0,0,1,8-8h2" style="fill:none;stroke:#000;stroke-linejoin:round;stroke-width:2px"/><path d="M43,26a4,4,0,0,0,0-8" style="fill:none;stroke:#000;stroke-linejoin:round;stroke-width:2px"/><path d="M21,26a4,4,0,0,1,0-8" style="fill:none;stroke:#000;stroke-linejoin:round;stroke-width:2px"/><path d="M35,7a3.78,3.78,0,0,1,.05-.67C35.36,3.74,37.46,1,40,1a5,5,0,0,1,5,5,8,8,0,0,1,8,8c0,2.53,0,8-6,8" style="fill:none;stroke:#000;stroke-linejoin:round;stroke-width:2px"/><path d="M29,7a3.78,3.78,0,0,0-.05-.67C28.64,3.74,26.54,1,24,1a5,5,0,0,0-5,5,8,8,0,0,0-8,8c0,2.53,0,8,6,8" style="fill:none;stroke:#000;stroke-linejoin:round;stroke-width:2px"/><path d="M21,27c-3,0-4,2.69-4,6a6,6,0,0,0,6,6,9,9,0,0,0,18,0,6,6,0,0,0,6-6c0-3.31-1-6-4-6" style="fill:none;stroke:#000;stroke-linejoin:round;stroke-width:2px"/><circle cx="32" cy="25" r="4" style="fill:none;stroke:#000;stroke-linejoin:round;stroke-width:2px"/><path d="M24,25a8,8,0,0,0,16,0" style="fill:none;stroke:#000;stroke-linejoin:round;stroke-width:2px"/><path d="M24,17h5a2.938,2.938,0,0,1-3,3H24Z" style="fill:none;stroke:#000;stroke-linejoin:round;stroke-width:2px"/><path d="M40,17H35a2.938,2.938,0,0,0,3,3h2Z" style="fill:none;stroke:#000;stroke-linejoin:round;stroke-width:2px"/><polyline points="25 14 30 16 30 13" style="fill:none;stroke:#000;stroke-linejoin:round;stroke-width:2px"/><polyline points="39 14 34 16 34 13" style="fill:none;stroke:#000;stroke-linejoin:round;stroke-width:2px"/><circle cx="32" cy="55" r="2" style="fill:none;stroke:#000;stroke-linejoin:round;stroke-width:2px"/><line style="fill:none;stroke:#000;stroke-linejoin:round;stroke-width:2px" x1="32" x2="32" y1="53" y2="48"/><line style="fill:none;stroke:#000;stroke-linejoin:round;stroke-width:2px" x1="32" x2="32" y1="57" y2="63"/><polyline points="45 63 45 56 45 51" style="fill:none;stroke:#000;stroke-linejoin:round;stroke-width:2px"/><line style="fill:none;stroke:#000;stroke-linejoin:round;stroke-width:2px" x1="45" x2="45" y1="49" y2="47"/><polyline points="19 63 19 56 19 51" style="fill:none;stroke:#000;stroke-linejoin:round;stroke-width:2px"/><line style="fill:none;stroke:#000;stroke-linejoin:round;stroke-width:2px" x1="19" x2="19" y1="49" y2="47"/><line style="fill:none;stroke:#000;stroke-linejoin:round;stroke-width:2px" x1="13" x2="19" y1="56" y2="56"/><line style="fill:none;stroke:#000;stroke-linejoin:round;stroke-width:2px" x1="45" x2="51" y1="56" y2="56"/></g></svg>