<svg width="99" height="27" viewBox="0 0 99 27" fill="none" xmlns="http://www.w3.org/2000/svg">
<g clip-path="url(#clip0_80_4)">
<path d="M20 4.75401L10 14.4525" stroke="#FFBD81" stroke-width="5" stroke-linecap="round"/>
<path d="M89.9784 12.7761L82 4.75402" stroke="#FFBD81" stroke-width="5" stroke-linecap="round"/>
<path d="M75 4.75401L68 22.754" stroke="#FFBD81" stroke-width="5" stroke-linecap="round"/>
<path d="M19.7276 23.254L10.2276 14.754" stroke="#FFBD81" stroke-width="5" stroke-linecap="round"/>
<path d="M81.8318 22.8858L90.0802 13.1665" stroke="#FFBD81" stroke-width="5" stroke-linecap="round"/>
<path d="M34.5564 25.125C36.5593 25.128 38.5157 24.5627 40.2018 23.5035L41.1227 24.424C41.3404 24.6475 41.6 24.8259 41.8867 24.9491C42.1764 25.0735 42.4881 25.1391 42.8034 25.1418C43.1188 25.1446 43.4315 25.0845 43.7234 24.965C44.0153 24.8456 44.2805 24.6693 44.5035 24.4463C44.7265 24.2233 44.9028 23.9581 45.0222 23.6662C45.1416 23.3744 45.2017 23.0616 45.199 22.7463C45.1963 22.4309 45.1307 22.1193 45.0063 21.8295C44.8831 21.5428 44.7047 21.2832 44.4812 21.0656L43.5604 20.1443C44.5876 18.5088 45.1822 16.573 45.1822 14.5C45.1822 8.63197 40.4252 3.875 34.5572 3.875C28.6892 3.875 23.9322 8.63197 23.9322 14.5C23.9322 20.3678 28.6887 25.1246 34.5564 25.125ZM34.5564 25.125C34.5567 25.125 34.5569 25.125 34.5572 25.125V24.125L34.5556 25.125C34.5559 25.125 34.5561 25.125 34.5564 25.125ZM40.4322 14.5C40.4322 15.2488 40.2924 15.964 40.0376 16.6216L38.9865 15.5702L38.9862 15.5698C38.7655 15.3493 38.5036 15.1745 38.2154 15.0552C37.9272 14.9359 37.6183 14.8746 37.3063 14.8747C36.9944 14.8748 36.6856 14.9364 36.3974 15.0559C36.1093 15.1753 35.8475 15.3504 35.627 15.571C35.4065 15.7917 35.2317 16.0536 35.1124 16.3418C34.9931 16.63 34.9318 16.9389 34.9319 17.2508C34.9321 17.8807 35.1826 18.4848 35.6281 18.93C35.6281 18.9301 35.6282 18.9301 35.6282 18.9302L36.6788 19.9804C36.0061 20.241 35.2875 20.3762 34.5588 20.375H34.5572C31.3124 20.375 28.6822 17.7448 28.6822 14.5C28.6822 11.2552 31.3124 8.625 34.5572 8.625C37.802 8.625 40.4322 11.2552 40.4322 14.5Z" fill="#F8F8F8"/>
<path d="M34.5564 25.125C36.5593 25.128 38.5157 24.5627 40.2018 23.5035L41.1227 24.424C41.3404 24.6475 41.6 24.8259 41.8867 24.9491C42.1764 25.0735 42.4881 25.1391 42.8034 25.1418C43.1188 25.1446 43.4315 25.0845 43.7234 24.965C44.0153 24.8456 44.2805 24.6693 44.5035 24.4463C44.7265 24.2233 44.9028 23.9581 45.0222 23.6662C45.1416 23.3744 45.2017 23.0616 45.199 22.7463C45.1963 22.4309 45.1307 22.1193 45.0063 21.8295C44.8831 21.5428 44.7047 21.2832 44.4812 21.0656L43.5604 20.1443C44.5876 18.5088 45.1822 16.573 45.1822 14.5C45.1822 8.63197 40.4252 3.875 34.5572 3.875C28.6892 3.875 23.9322 8.63197 23.9322 14.5C23.9322 20.3678 28.6887 25.1246 34.5564 25.125ZM34.5564 25.125C34.5567 25.125 34.5569 25.125 34.5572 25.125V24.125L34.5556 25.125C34.5559 25.125 34.5561 25.125 34.5564 25.125ZM40.4322 14.5C40.4322 15.2488 40.2924 15.964 40.0376 16.6216L38.9865 15.5702L38.9862 15.5698C38.7655 15.3493 38.5036 15.1745 38.2154 15.0552C37.9272 14.9359 37.6183 14.8746 37.3063 14.8747C36.9944 14.8748 36.6856 14.9364 36.3974 15.0559C36.1093 15.1753 35.8475 15.3504 35.627 15.571C35.4065 15.7917 35.2317 16.0536 35.1124 16.3418C34.9931 16.63 34.9318 16.9389 34.9319 17.2508C34.9321 17.8807 35.1826 18.4848 35.6281 18.93C35.6281 18.9301 35.6282 18.9301 35.6282 18.9302L36.6788 19.9804C36.0061 20.241 35.2875 20.3762 34.5588 20.375H34.5572C31.3124 20.375 28.6822 17.7448 28.6822 14.5C28.6822 11.2552 31.3124 8.625 34.5572 8.625C37.802 8.625 40.4322 11.2552 40.4322 14.5Z" stroke="white" stroke-width="2"/>
<path d="M34.5564 25.125C36.5593 25.128 38.5157 24.5627 40.2018 23.5035L41.1227 24.424C41.3404 24.6475 41.6 24.8259 41.8867 24.9491C42.1764 25.0735 42.4881 25.1391 42.8034 25.1418C43.1188 25.1446 43.4315 25.0845 43.7234 24.965C44.0153 24.8456 44.2805 24.6693 44.5035 24.4463C44.7265 24.2233 44.9028 23.9581 45.0222 23.6662C45.1416 23.3744 45.2017 23.0616 45.199 22.7463C45.1963 22.4309 45.1307 22.1193 45.0063 21.8295C44.8831 21.5428 44.7047 21.2832 44.4812 21.0656L43.5604 20.1443C44.5876 18.5088 45.1822 16.573 45.1822 14.5C45.1822 8.63197 40.4252 3.875 34.5572 3.875C28.6892 3.875 23.9322 8.63197 23.9322 14.5C23.9322 20.3678 28.6887 25.1246 34.5564 25.125ZM34.5564 25.125C34.5567 25.125 34.5569 25.125 34.5572 25.125V24.125L34.5556 25.125C34.5559 25.125 34.5561 25.125 34.5564 25.125ZM40.4322 14.5C40.4322 15.2488 40.2924 15.964 40.0376 16.6216L38.9865 15.5702L38.9862 15.5698C38.7655 15.3493 38.5036 15.1745 38.2154 15.0552C37.9272 14.9359 37.6183 14.8746 37.3063 14.8747C36.9944 14.8748 36.6856 14.9364 36.3974 15.0559C36.1093 15.1753 35.8475 15.3504 35.627 15.571C35.4065 15.7917 35.2317 16.0536 35.1124 16.3418C34.9931 16.63 34.9318 16.9389 34.9319 17.2508C34.9321 17.8807 35.1826 18.4848 35.6281 18.93C35.6281 18.9301 35.6282 18.9301 35.6282 18.9302L36.6788 19.9804C36.0061 20.241 35.2875 20.3762 34.5588 20.375H34.5572C31.3124 20.375 28.6822 17.7448 28.6822 14.5C28.6822 11.2552 31.3124 8.625 34.5572 8.625C37.802 8.625 40.4322 11.2552 40.4322 14.5Z" stroke="#FFBD81" stroke-width="2"/>
<path d="M55.311 4C58.0157 4 60.0443 4.3497 61.3966 5.16567C62.8617 5.98164 63.5379 7.38045 63.5379 9.36209C63.5379 10.5278 63.1998 11.5769 62.749 12.3928C62.4935 12.7914 62.1616 13.1315 61.7739 13.3922C61.3862 13.6528 60.951 13.8285 60.4951 13.9082C61.1393 14.0639 61.7505 14.3404 62.2982 14.7242C62.749 15.0739 63.1998 15.6567 63.5379 16.2396C63.8906 17.0839 64.045 18.0026 63.9887 18.9206C64.0285 19.7627 63.8758 20.6027 63.5429 21.3724C63.21 22.142 62.7064 22.8196 62.0728 23.3501C60.4685 24.5353 58.5181 25.1117 56.5507 24.9821H49V4H55.311ZM55.7618 12.2763C57.0015 12.2763 57.903 12.1597 58.3538 11.6934C58.9173 11.3437 59.1427 10.6443 59.1427 9.94492C59.1427 9.12895 58.8046 8.54612 58.2411 8.19642C57.6776 7.84672 56.7761 7.61358 55.5364 7.61358H53.2825V12.2763H55.7618ZM53.2825 15.7733V21.4851H56.0999C57.3396 21.4851 58.3538 21.1354 58.8046 20.6691C59.3681 20.0863 59.5935 19.5034 59.5935 18.5709C59.6069 18.2185 59.5429 17.8676 59.4063 17.5446C59.2696 17.2215 59.0639 16.9347 58.8046 16.7058C58.2411 16.2395 57.3396 16.0064 55.9872 16.0064H53.1698L53.2825 15.7733Z" fill="#F8F8F8"/>
<path d="M55.311 4C58.0157 4 60.0443 4.3497 61.3966 5.16567C62.8617 5.98164 63.5379 7.38045 63.5379 9.36209C63.5379 10.5278 63.1998 11.5769 62.749 12.3928C62.4935 12.7914 62.1616 13.1315 61.7739 13.3922C61.3862 13.6528 60.951 13.8285 60.4951 13.9082C61.1393 14.0639 61.7505 14.3404 62.2982 14.7242C62.749 15.0739 63.1998 15.6567 63.5379 16.2396C63.8906 17.0839 64.045 18.0026 63.9887 18.9206C64.0285 19.7627 63.8758 20.6027 63.5429 21.3724C63.21 22.142 62.7064 22.8196 62.0728 23.3501C60.4685 24.5353 58.5181 25.1117 56.5507 24.9821H49V4H55.311ZM55.7618 12.2763C57.0015 12.2763 57.903 12.1597 58.3538 11.6934C58.9173 11.3437 59.1427 10.6443 59.1427 9.94492C59.1427 9.12895 58.8046 8.54612 58.2411 8.19642C57.6776 7.84672 56.7761 7.61358 55.5364 7.61358H53.2825V12.2763H55.7618ZM53.2825 15.7733V21.4851H56.0999C57.3396 21.4851 58.3538 21.1354 58.8046 20.6691C59.3681 20.0863 59.5935 19.5034 59.5935 18.5709C59.6069 18.2185 59.5429 17.8676 59.4063 17.5446C59.2696 17.2215 59.0639 16.9347 58.8046 16.7058C58.2411 16.2395 57.3396 16.0064 55.9872 16.0064H53.1698L53.2825 15.7733Z" stroke="white"/>
<path d="M55.311 4C58.0157 4 60.0443 4.3497 61.3966 5.16567C62.8617 5.98164 63.5379 7.38045 63.5379 9.36209C63.5379 10.5278 63.1998 11.5769 62.749 12.3928C62.4935 12.7914 62.1616 13.1315 61.7739 13.3922C61.3862 13.6528 60.951 13.8285 60.4951 13.9082C61.1393 14.0639 61.7505 14.3404 62.2982 14.7242C62.749 15.0739 63.1998 15.6567 63.5379 16.2396C63.8906 17.0839 64.045 18.0026 63.9887 18.9206C64.0285 19.7627 63.8758 20.6027 63.5429 21.3724C63.21 22.142 62.7064 22.8196 62.0728 23.3501C60.4685 24.5353 58.5181 25.1117 56.5507 24.9821H49V4H55.311ZM55.7618 12.2763C57.0015 12.2763 57.903 12.1597 58.3538 11.6934C58.9173 11.3437 59.1427 10.6443 59.1427 9.94492C59.1427 9.12895 58.8046 8.54612 58.2411 8.19642C57.6776 7.84672 56.7761 7.61358 55.5364 7.61358H53.2825V12.2763H55.7618ZM53.2825 15.7733V21.4851H56.0999C57.3396 21.4851 58.3538 21.1354 58.8046 20.6691C59.3681 20.0863 59.5935 19.5034 59.5935 18.5709C59.6069 18.2185 59.5429 17.8676 59.4063 17.5446C59.2696 17.2215 59.0639 16.9347 58.8046 16.7058C58.2411 16.2395 57.3396 16.0064 55.9872 16.0064H53.1698L53.2825 15.7733Z" stroke="#FFBD81"/>
</g>
<defs>
<clipPath id="clip0_80_4">
<rect width="99" height="27" fill="white"/>
</clipPath>
</defs>
</svg>
